<mxfile host="app.diagrams.net" modified="2023-10-05T09:56:52.494Z" agent="Mozilla/5.0 (Macintosh; Intel Mac OS X 10.15; rv:109.0) Gecko/20100101 Firefox/117.0" version="22.0.2" etag="Om0rm2yOzxEPou1qaSRk" type="github">
  <diagram name="Page-1" id="fNZ2Dswvayhg2h3cj9Ox">
    <mxGraphModel>
      <root>
        <mxCell id="0" />
        <mxCell id="1" parent="0" />
      </root>
    </mxGraphModel>
  </diagram>
</mxfile>
